<?xml version="1.0" encoding="UTF-8" standalone="no"?>
<!DOCTYPE svg PUBLIC "-//W3C//DTD SVG 1.1//EN" "http://www.w3.org/Graphics/SVG/1.1/DTD/svg11.dtd">
<svg width="100%" height="100%" viewBox="0 0 156 154" version="1.1" xmlns="http://www.w3.org/2000/svg" xmlns:xlink="http://www.w3.org/1999/xlink" xml:space="preserve" xmlns:serif="http://www.serif.com/" style="fill-rule:evenodd;clip-rule:evenodd;stroke-linejoin:round;stroke-miterlimit:2;">
    <g transform="matrix(4.16667,0,0,4.16667,0.00208333,95.8192)">
        <path d="M0,13.96L4.373,13.96L11.432,0L7.059,0L0,13.96Z" style="fill:white;fill-rule:nonzero;"/>
    </g>
    <g transform="matrix(4.16667,0,0,4.16667,77.8583,117.95)">
        <path d="M0,-19.659L2.647,-14.423L7.02,-14.423L0,-28.308L-8.356,-11.781L-18.686,-11.781L-18.686,-7.879L-1.951,-7.879L-1.951,8.649L1.951,8.649L1.951,-7.879L5.956,-7.879L14.312,8.649L18.685,8.649L10.328,-7.879L18.685,-7.879L18.685,-11.781L-3.983,-11.781L0,-19.659Z" style="fill:white;fill-rule:nonzero;"/>
    </g>
</svg>
